<svg width="45" height="45" viewBox="0 0 45 45" fill="none" xmlns="http://www.w3.org/2000/svg">
<rect width="45" height="45" rx="22.5" fill="#F76100" fill-opacity="0.1"/>
<path fill-rule="evenodd" clip-rule="evenodd" d="M26 14.75C26 14.3358 26.3358 14 26.75 14L31.25 14C31.6642 14 32 14.3358 32 14.75V19.25C32 19.6642 31.6642 20 31.25 20C30.8358 20 30.5 19.6642 30.5 19.25V16.5607L26.5303 20.5303C26.2374 20.8232 25.7626 20.8232 25.4697 20.5303C25.1768 20.2374 25.1768 19.7626 25.4697 19.4697L29.4393 15.5H26.75C26.3358 15.5 26 15.1642 26 14.75ZM14 14.75C14 14.3358 14.3358 14 14.75 14H19.25C19.6642 14 20 14.3358 20 14.75C20 15.1642 19.6642 15.5 19.25 15.5H16.5607L20.5303 19.4697C20.8232 19.7626 20.8232 20.2374 20.5303 20.5303C20.2374 20.8232 19.7626 20.8232 19.4697 20.5303L15.5 16.5607V19.25C15.5 19.6642 15.1642 20 14.75 20C14.3358 20 14 19.6642 14 19.25V14.75ZM25.4697 26.5303C25.1768 26.2374 25.1768 25.7626 25.4697 25.4697C25.7626 25.1768 26.2374 25.1768 26.5303 25.4697L30.5 29.4393V26.75C30.5 26.3358 30.8358 26 31.25 26C31.6642 26 32 26.3358 32 26.75V31.25C32 31.6642 31.6642 32 31.25 32H26.75C26.3358 32 26 31.6642 26 31.25C26 30.8358 26.3358 30.5 26.75 30.5H29.4393L25.4697 26.5303ZM20.5303 25.4697C20.8232 25.7626 20.8232 26.2374 20.5303 26.5303L16.5607 30.5H19.25C19.6642 30.5 20 30.8358 20 31.25C20 31.6642 19.6642 32 19.25 32H14.75C14.3358 32 14 31.6642 14 31.25V26.75C14 26.3358 14.3358 26 14.75 26C15.1642 26 15.5 26.3358 15.5 26.75V29.4393L19.4697 25.4697C19.7626 25.1768 20.2374 25.1768 20.5303 25.4697Z" fill="#F76100"/>
</svg>
