<svg width="45" height="45" viewBox="0 0 45 45" fill="none" xmlns="http://www.w3.org/2000/svg">
<rect width="45" height="45" rx="22.5" fill="#F76100" fill-opacity="0.1"/>
<path fill-rule="evenodd" clip-rule="evenodd" d="M23 13.25C17.6152 13.25 13.25 17.6152 13.25 23C13.25 28.3848 17.6152 32.75 23 32.75C28.3848 32.75 32.75 28.3848 32.75 23C32.75 17.6152 28.3848 13.25 23 13.25ZM17.262 17.0723C15.7129 18.5721 14.75 20.6736 14.75 23C14.75 27.5563 18.4437 31.25 23 31.25C27.5563 31.25 31.25 27.5563 31.25 23C31.25 20.2446 29.8992 17.8047 27.8237 16.3064C27.4863 16.8455 27.0374 17.3083 26.5056 17.6629L25.2499 18.5L25.4145 18.8292C25.6835 19.3671 25.2923 20 24.6909 20C24.5653 20 24.4414 19.9708 24.3291 19.9146L23.7252 19.6126C23.2921 19.3961 22.769 19.481 22.4266 19.8234L22.2954 19.9545C21.8561 20.3938 21.8561 21.1062 22.2954 21.5455L22.5905 21.8406C22.8474 22.0975 23.2126 22.2146 23.571 22.1548L24.7411 21.9598C25.0641 21.906 25.3946 21.9956 25.6462 22.2053L26.9755 23.313C27.2962 23.5802 27.4356 24.0073 27.3344 24.4122C26.9519 25.9419 26.1609 27.339 25.046 28.4539L24.3233 29.1766C23.9809 29.519 23.4578 29.6039 23.0247 29.3874L22.8718 29.3109C22.4907 29.1204 22.2499 28.7308 22.2499 28.3047V27.216C22.2499 26.9176 22.1314 26.6315 21.9204 26.4205L20.5733 25.0734C20.2309 24.731 20.146 24.2079 20.3625 23.7747L20.7499 23L19.1095 21.3596C18.2253 20.4754 17.6394 19.3369 17.4338 18.1034L17.262 17.0723Z" fill="#F76100"/>
</svg>
