<svg width="45" height="45" viewBox="0 0 45 45" fill="none" xmlns="http://www.w3.org/2000/svg">
<rect width="45" height="45" rx="22.5" fill="#F76100" fill-opacity="0.1"/>
<path fill-rule="evenodd" clip-rule="evenodd" d="M13.25 24.5C13.25 19.9437 16.9437 16.25 21.5 16.25C21.9142 16.25 22.25 16.5858 22.25 17V23.75H29C29.4142 23.75 29.75 24.0858 29.75 24.5C29.75 29.0563 26.0563 32.75 21.5 32.75C16.9437 32.75 13.25 29.0563 13.25 24.5Z" fill="#F76100"/>
<path fill-rule="evenodd" clip-rule="evenodd" d="M23.75 14C23.75 13.5858 24.0858 13.25 24.5 13.25C29.0563 13.25 32.75 16.9437 32.75 21.5C32.75 21.9142 32.4142 22.25 32 22.25H24.5C24.0858 22.25 23.75 21.9142 23.75 21.5V14Z" fill="#F76100"/>
</svg>
