<svg width="40" height="40" viewBox="0 0 40 40" fill="none" xmlns="http://www.w3.org/2000/svg">
<rect width="40" height="40" rx="5" fill="url(#paint0_radial_369_2676)"/>
<path d="M10.4 8H29.6C30.2365 8 30.847 8.25286 31.297 8.70294C31.7471 9.15303 32 9.76348 32 10.4V25.6C32 26.2365 31.7471 26.847 31.297 27.297C30.847 27.7471 30.2365 28 29.6 28H25.3681C25.519 27.493 25.6 26.956 25.6 26.4C25.6 23.3072 23.0928 20.8 20 20.8C16.9072 20.8 14.4 23.3072 14.4 26.4C14.4 26.956 14.481 27.493 14.6319 28H10.4C9.76348 28 9.15303 27.7471 8.70294 27.297C8.25286 26.847 8 26.2365 8 25.6V10.4C8 9.76348 8.25286 9.15303 8.70294 8.70294C9.15303 8.25286 9.76348 8 10.4 8Z" fill="url(#paint1_linear_369_2676)" fill-opacity="0.24"/>
<path d="M10.4 28C9.76348 28 9.15303 27.7471 8.70294 27.297C8.25286 26.847 8 26.2365 8 25.6V10.4C8 9.76348 8.25286 9.15303 8.70294 8.70294C9.15303 8.25286 9.76348 8 10.4 8H29.6C30.2365 8 30.847 8.25286 31.297 8.70294C31.7471 9.15303 32 9.76348 32 10.4V25.6C32 26.2365 31.7471 26.847 31.297 27.297C30.847 27.7471 30.2365 28 29.6 28" stroke="white" stroke-linecap="round" stroke-linejoin="round"/>
<g opacity="0.4">
<path d="M13.489 19.0364H10.607L10.145 20.4004H8.176L10.97 12.6784H13.148L15.942 20.4004H13.951L13.489 19.0364ZM13.005 17.5844L12.048 14.7574L11.102 17.5844H13.005ZM19.6854 12.6784C20.4994 12.6784 21.2107 12.8397 21.8194 13.1624C22.428 13.4851 22.8974 13.9397 23.2274 14.5264C23.5647 15.1057 23.7334 15.7767 23.7334 16.5394C23.7334 17.2947 23.5647 17.9657 23.2274 18.5524C22.8974 19.1391 22.4244 19.5937 21.8084 19.9164C21.1997 20.2391 20.492 20.4004 19.6854 20.4004H16.7924V12.6784H19.6854ZM19.5644 18.7724C20.2757 18.7724 20.8294 18.5781 21.2254 18.1894C21.6214 17.8007 21.8194 17.2507 21.8194 16.5394C21.8194 15.8281 21.6214 15.2744 21.2254 14.8784C20.8294 14.4824 20.2757 14.2844 19.5644 14.2844H18.6734V18.7724H19.5644ZM27.5785 20.4774C27.0139 20.4774 26.5079 20.3857 26.0605 20.2024C25.6132 20.0191 25.2539 19.7477 24.9825 19.3884C24.7185 19.0291 24.5792 18.5964 24.5645 18.0904H26.5665C26.5959 18.3764 26.6949 18.5964 26.8635 18.7504C27.0322 18.8971 27.2522 18.9704 27.5235 18.9704C27.8022 18.9704 28.0222 18.9081 28.1835 18.7834C28.3449 18.6514 28.4255 18.4717 28.4255 18.2444C28.4255 18.0537 28.3595 17.8961 28.2275 17.7714C28.1029 17.6467 27.9452 17.5441 27.7545 17.4634C27.5712 17.3827 27.3072 17.2911 26.9625 17.1884C26.4639 17.0344 26.0569 16.8804 25.7415 16.7264C25.4262 16.5724 25.1549 16.3451 24.9275 16.0444C24.7002 15.7437 24.5865 15.3514 24.5865 14.8674C24.5865 14.1487 24.8469 13.5877 25.3675 13.1844C25.8882 12.7737 26.5665 12.5684 27.4025 12.5684C28.2532 12.5684 28.9389 12.7737 29.4595 13.1844C29.9802 13.5877 30.2589 14.1524 30.2955 14.8784H28.2605C28.2459 14.6291 28.1542 14.4347 27.9855 14.2954C27.8169 14.1487 27.6005 14.0754 27.3365 14.0754C27.1092 14.0754 26.9259 14.1377 26.7865 14.2624C26.6472 14.3797 26.5775 14.5521 26.5775 14.7794C26.5775 15.0287 26.6949 15.2231 26.9295 15.3624C27.1642 15.5017 27.5309 15.6521 28.0295 15.8134C28.5282 15.9821 28.9315 16.1434 29.2395 16.2974C29.5549 16.4514 29.8262 16.6751 30.0535 16.9684C30.2809 17.2617 30.3945 17.6394 30.3945 18.1014C30.3945 18.5414 30.2809 18.9411 30.0535 19.3004C29.8335 19.6597 29.5109 19.9457 29.0855 20.1584C28.6602 20.3711 28.1579 20.4774 27.5785 20.4774Z" fill="white"/>
</g>
<path d="M25.6004 26.3998C25.6004 27.7706 25.1078 29.0264 24.2901 29.9998C23.2628 31.2226 21.7224 31.9998 20.0004 31.9998C16.9076 31.9998 14.4004 29.4926 14.4004 26.3998C14.4004 23.307 16.9076 20.7998 20.0004 20.7998C23.0932 20.7998 25.6004 23.307 25.6004 26.3998Z" fill="url(#paint2_linear_369_2676)" fill-opacity="0.24"/>
<path d="M24.2901 29.9998C25.1078 29.0264 25.6004 27.7706 25.6004 26.3998C25.6004 23.307 23.0932 20.7998 20.0004 20.7998C16.9076 20.7998 14.4004 23.307 14.4004 26.3998C14.4004 29.4926 16.9076 31.9998 20.0004 31.9998C21.7224 31.9998 23.2628 31.2226 24.2901 29.9998ZM24.2901 29.9998L27.0901 32.7998" stroke="white" stroke-linecap="round" stroke-linejoin="round"/>
<path d="M17.5996 26.3998L19.1996 27.9998L22.3996 24.7998" stroke="white" stroke-linecap="round" stroke-linejoin="round"/>
<defs>
<radialGradient id="paint0_radial_369_2676" cx="0" cy="0" r="1" gradientUnits="userSpaceOnUse" gradientTransform="translate(20 20) rotate(90) scale(20)">
<stop stop-color="#FBAE00"/>
<stop offset="1" stop-color="#F76100"/>
</radialGradient>
<linearGradient id="paint1_linear_369_2676" x1="20" y1="8" x2="20" y2="28" gradientUnits="userSpaceOnUse">
<stop stop-color="white" stop-opacity="0"/>
<stop offset="1" stop-color="white"/>
</linearGradient>
<linearGradient id="paint2_linear_369_2676" x1="20.0004" y1="20.7998" x2="20.0004" y2="31.9998" gradientUnits="userSpaceOnUse">
<stop stop-color="white" stop-opacity="0"/>
<stop offset="1" stop-color="white"/>
</linearGradient>
</defs>
</svg>
